<?xml version="1.0" standalone="no"?>
<!DOCTYPE svg PUBLIC "-//W3C//DTD SVG 20010904//EN"
 "http://www.w3.org/TR/2001/REC-SVG-20010904/DTD/svg10.dtd">
<svg version="1.0" xmlns="http://www.w3.org/2000/svg"
 width="436.000000pt" height="287.000000pt" viewBox="0 0 436.000000 287.000000"
 preserveAspectRatio="xMidYMid meet">
<g transform="translate(0.000000,287.000000) scale(0.100000,-0.100000)"
fill="rgb(46.666667%,7.843137%,16.470588%)" stroke="none">
<path d="M242 2853 c-13 -3 -22 -9 -20 -14 3 -9 580 -318 1168 -626 80 -42
159 -85 175 -95 41 -25 49 -23 106 22 69 54 216 125 314 152 115 30 326 30
440 -1 101 -27 246 -97 315 -152 l53 -42 91 48 c193 102 236 125 401 210 94
48 202 104 240 125 39 21 122 64 185 97 63 33 183 96 265 139 83 43 163 85
179 94 35 18 36 33 4 42 -25 7 -3879 8 -3916 1z"/>
<path d="M18 2663 c-10 -31 -13 -265 -13 -1233 0 -1194 0 -1195 21 -1241 30
-64 77 -114 136 -143 l52 -26 1960 0 1961 0 50 24 c66 30 131 104 150 171 13
44 15 209 13 1241 -2 770 -7 1195 -13 1205 -9 15 -100 -30 -695 -342 -377
-197 -689 -360 -695 -362 -5 -3 3 -26 18 -53 94 -164 137 -311 138 -475 0
-122 -11 -196 -46 -300 -123 -361 -470 -609 -853 -609 -238 0 -481 106 -644
278 -83 88 -120 143 -169 246 -123 262 -107 572 42 830 22 38 36 72 32 76 -4
4 -46 28 -93 52 -47 25 -245 130 -440 233 -195 103 -391 207 -435 230 -365
194 -445 235 -454 235 -5 0 -15 -17 -23 -37z"/>
<path d="M2040 2064 c-137 -36 -284 -134 -364 -243 -88 -119 -126 -238 -126
-395 0 -188 55 -322 190 -457 136 -136 266 -190 460 -190 194 0 325 54 460
190 94 94 145 181 175 301 26 98 17 281 -17 378 -72 201 -252 363 -463 417
-75 19 -241 19 -315 -1z m80 -399 c52 -47 97 -85 100 -85 3 0 48 38 100 85 57
51 104 85 117 85 27 0 133 -96 133 -120 0 -10 -15 -30 -32 -45 -18 -15 -62
-55 -98 -87 l-65 -60 99 -92 c79 -73 97 -96 92 -112 -7 -23 -112 -114 -132
-114 -8 0 -59 41 -115 90 l-101 91 -86 -79 c-48 -44 -97 -85 -110 -91 -27 -14
-40 -8 -111 56 -59 52 -53 68 60 167 49 43 89 82 87 86 -2 3 -45 44 -95 90
-92 82 -108 108 -80 133 65 61 101 87 120 87 13 0 58 -33 117 -85z"/>
</g>
</svg>
