<?xml version="1.0" encoding="UTF-8"?>
<svg xmlns="http://www.w3.org/2000/svg" xmlns:xlink="http://www.w3.org/1999/xlink" width="481pt" height="117pt" viewBox="0 0 481 117" version="1.1">
    <g id="surface1">
        <path style=" stroke:none;fill-rule:nonzero;fill:rgb(46.666667%,7.843137%,16.470588%);fill-opacity:1;" d="M 134.164062 23.871094 L 94.3125 44.714844 C 97.386719 48.992188 99.207031 54.238281 99.207031 59.910156 C 99.207031 74.296875 87.550781 85.953125 73.179688 85.953125 C 58.804688 85.953125 47.148438 74.292969 47.148438 59.910156 C 47.148438 54.277344 48.941406 49.066406 51.980469 44.808594 L 10.910156 23.066406 C 10.347656 24.171875 10.03125 25.417969 10.03125 26.746094 L 10.03125 92 C 10.03125 96.507812 13.683594 100.160156 18.183594 100.160156 L 126.539062 100.160156 C 131.035156 100.160156 134.6875 96.507812 134.6875 92 L 134.6875 26.746094 C 134.691406 25.730469 134.503906 24.765625 134.164062 23.871094 Z M 134.164062 23.871094 "/>
        <path style=" stroke:none;fill-rule:nonzero;fill:rgb(46.666667%,7.843137%,16.470588%);fill-opacity:1;" d="M 90.125 40.148438 L 130.234375 19.171875 C 129.296875 18.796875 128.285156 18.585938 127.21875 18.585938 L 18.867188 18.585938 C 17.902344 18.585938 16.980469 18.761719 16.121094 19.070312 L 56.125 40.246094 C 60.695312 36.273438 66.652344 33.867188 73.179688 33.867188 C 79.652344 33.867188 85.570312 36.234375 90.125 40.148438 Z M 90.125 40.148438 "/>
        <path style=" stroke:none;fill-rule:nonzero;fill:rgb(46.666667%,7.843137%,16.470588%);fill-opacity:1;" d="M 73.039062 40.921875 C 62.722656 40.921875 54.359375 49.292969 54.359375 59.617188 C 54.359375 69.9375 62.722656 78.308594 73.039062 78.308594 C 83.359375 78.308594 91.722656 69.941406 91.722656 59.617188 C 91.726562 49.292969 83.363281 40.921875 73.039062 40.921875 Z M 83.339844 66.027344 L 80.996094 68.132812 C 80.675781 68.421875 80.285156 68.566406 79.828125 68.566406 C 79.367188 68.566406 78.976562 68.425781 78.652344 68.132812 L 73.585938 63.585938 L 68.519531 68.132812 C 68.195312 68.421875 67.804688 68.566406 67.347656 68.566406 C 66.886719 68.566406 66.496094 68.425781 66.175781 68.132812 L 63.832031 66.027344 C 63.507812 65.742188 63.351562 65.390625 63.351562 64.976562 C 63.351562 64.566406 63.511719 64.210938 63.832031 63.925781 L 68.898438 59.371094 L 63.832031 54.824219 C 63.507812 54.535156 63.351562 54.1875 63.351562 53.773438 C 63.351562 53.359375 63.511719 53.007812 63.832031 52.71875 L 66.175781 50.617188 C 66.496094 50.324219 66.886719 50.183594 67.347656 50.183594 C 67.804688 50.183594 68.195312 50.328125 68.519531 50.617188 L 73.585938 55.164062 L 78.652344 50.617188 C 78.972656 50.324219 79.363281 50.183594 79.824219 50.183594 C 80.28125 50.183594 80.671875 50.328125 80.992188 50.617188 L 83.339844 52.71875 C 83.664062 53.007812 83.820312 53.359375 83.820312 53.773438 C 83.820312 54.183594 83.660156 54.539062 83.339844 54.824219 L 78.269531 59.371094 L 83.339844 63.925781 C 83.664062 64.210938 83.820312 64.558594 83.820312 64.976562 C 83.824219 65.390625 83.664062 65.742188 83.339844 66.027344 Z M 83.339844 66.027344 "/>
        <path style=" stroke:none;fill-rule:nonzero;fill:rgb(0%,0%,0%);fill-opacity:1;" d="M 149.796875 20.40625 C 152.507812 19.851562 157.445312 19.359375 162.308594 19.359375 C 168.566406 19.359375 172.527344 20.195312 175.652344 22.351562 C 178.574219 24.089844 180.519531 27.152344 180.519531 31.1875 C 180.519531 35.5 177.808594 39.390625 172.734375 41.269531 L 172.734375 41.480469 C 177.667969 42.730469 182.1875 46.628906 182.1875 53.023438 C 182.1875 57.195312 180.378906 60.464844 177.738281 62.761719 C 174.402344 65.609375 168.914062 67.074219 160.296875 67.074219 C 155.570312 67.074219 152.023438 66.722656 149.800781 66.449219 L 149.800781 20.40625 Z M 158.277344 38.90625 L 162.65625 38.90625 C 168.632812 38.90625 171.898438 36.125 171.898438 32.160156 C 171.898438 27.707031 168.566406 25.691406 163.144531 25.691406 C 160.644531 25.691406 159.183594 25.828125 158.277344 26.039062 Z M 158.277344 60.394531 C 159.390625 60.601562 160.847656 60.601562 162.796875 60.601562 C 168.285156 60.601562 173.222656 58.585938 173.222656 52.816406 C 173.222656 47.320312 168.425781 45.09375 162.515625 45.09375 L 158.277344 45.09375 Z M 158.277344 60.394531 "/>
        <path style=" stroke:none;fill-rule:nonzero;fill:rgb(0%,0%,0%);fill-opacity:1;" d="M 198.597656 23.257812 C 198.597656 25.761719 196.722656 27.847656 193.730469 27.847656 C 190.882812 27.847656 189.007812 25.761719 189.007812 23.257812 C 189.007812 20.617188 190.953125 18.601562 193.804688 18.601562 C 196.722656 18.597656 198.527344 20.613281 198.597656 23.257812 Z M 189.492188 66.582031 L 189.492188 32.714844 L 198.042969 32.714844 L 198.042969 66.582031 Z M 189.492188 66.582031 "/>
        <path style=" stroke:none;fill-rule:nonzero;fill:rgb(0%,0%,0%);fill-opacity:1;" d="M 217.085938 24.023438 L 217.085938 32.714844 L 225.21875 32.714844 L 225.21875 39.113281 L 217.085938 39.113281 L 217.085938 54.066406 C 217.085938 58.238281 218.199219 60.324219 221.46875 60.324219 C 222.996094 60.324219 223.828125 60.253906 224.800781 59.976562 L 224.941406 66.445312 C 223.6875 66.933594 221.394531 67.347656 218.753906 67.347656 C 215.558594 67.347656 212.984375 66.308594 211.386719 64.566406 C 209.511719 62.621094 208.675781 59.492188 208.675781 55.039062 L 208.675781 39.113281 L 203.882812 39.113281 L 203.882812 32.71875 L 208.675781 32.71875 L 208.675781 26.390625 Z M 217.085938 24.023438 "/>
        <path style=" stroke:none;fill-rule:nonzero;fill:rgb(46.666667%,7.843137%,16.470588%);fill-opacity:1;" d="M 271.582031 47.460938 C 271.304688 41.410156 270.957031 34.109375 271.027344 27.78125 L 270.820312 27.78125 C 269.289062 33.484375 267.34375 39.808594 265.257812 45.722656 L 258.378906 66.03125 L 251.847656 66.03125 L 245.589844 46.003906 C 243.785156 40.023438 242.117188 33.625 240.863281 27.78125 L 240.726562 27.78125 C 240.519531 33.902344 240.238281 41.34375 239.890625 47.742188 L 238.851562 66.585938 L 230.851562 66.585938 L 233.980469 19.714844 L 245.242188 19.714844 L 251.355469 38.558594 C 253.023438 44.054688 254.484375 49.617188 255.667969 54.832031 L 255.875 54.832031 C 257.128906 49.757812 258.726562 43.984375 260.53125 38.492188 L 266.996094 19.710938 L 278.117188 19.710938 L 280.828125 66.582031 L 272.484375 66.582031 Z M 271.582031 47.460938 "/>
        <path style=" stroke:none;fill-rule:nonzero;fill:rgb(46.666667%,7.843137%,16.470588%);fill-opacity:1;" d="M 315.726562 58.445312 C 315.726562 61.507812 315.867188 64.496094 316.28125 66.582031 L 308.566406 66.582031 L 307.945312 62.828125 L 307.734375 62.828125 C 305.71875 65.472656 302.175781 67.347656 297.726562 67.347656 C 290.914062 67.347656 287.09375 62.410156 287.09375 57.265625 C 287.09375 48.78125 294.667969 44.402344 307.179688 44.46875 L 307.179688 43.914062 C 307.179688 41.6875 306.277344 38.003906 300.300781 38.003906 C 296.964844 38.003906 293.488281 39.046875 291.195312 40.507812 L 289.53125 34.941406 C 292.03125 33.414062 296.410156 31.953125 301.761719 31.953125 C 312.605469 31.953125 315.734375 38.835938 315.734375 46.277344 L 315.734375 58.445312 Z M 307.386719 50.03125 C 301.339844 49.960938 295.570312 51.214844 295.570312 56.359375 C 295.570312 59.695312 297.726562 61.226562 300.4375 61.226562 C 303.914062 61.226562 306.34375 59.003906 307.179688 56.570312 C 307.386719 55.945312 307.386719 55.316406 307.386719 54.691406 Z M 307.386719 50.03125 "/>
        <path style=" stroke:none;fill-rule:nonzero;fill:rgb(46.666667%,7.843137%,16.470588%);fill-opacity:1;" d="M 330.816406 52.050781 C 331.027344 58.171875 335.75 60.8125 341.242188 60.8125 C 345.203125 60.8125 347.984375 60.1875 350.625 59.28125 L 351.875 65.125 C 348.957031 66.375 344.925781 67.28125 340.0625 67.28125 C 329.082031 67.28125 322.617188 60.535156 322.617188 50.171875 C 322.617188 40.78125 328.320312 31.953125 339.160156 31.953125 C 350.140625 31.953125 353.753906 40.992188 353.753906 48.433594 C 353.753906 50.035156 353.617188 51.285156 353.476562 52.050781 Z M 345.691406 46.070312 C 345.757812 42.9375 344.371094 37.792969 338.671875 37.792969 C 333.390625 37.792969 331.164062 42.59375 330.816406 46.070312 Z M 345.691406 46.070312 "/>
        <path style=" stroke:none;fill-rule:nonzero;fill:rgb(46.666667%,7.843137%,16.470588%);fill-opacity:1;" d="M 360.636719 17.207031 L 369.1875 17.207031 L 369.1875 66.582031 L 360.636719 66.582031 Z M 360.636719 17.207031 "/>
        <path style=" stroke:none;fill-rule:nonzero;fill:rgb(46.666667%,7.843137%,16.470588%);fill-opacity:1;" d="M 408.804688 56.429688 C 408.804688 60.464844 408.945312 63.800781 409.082031 66.582031 L 401.644531 66.582031 L 401.226562 61.507812 L 401.019531 61.507812 C 399.558594 63.871094 396.222656 67.347656 390.105469 67.347656 C 383.992188 67.347656 378.359375 63.664062 378.359375 52.609375 L 378.359375 32.71875 L 386.910156 32.71875 L 386.910156 51.148438 C 386.910156 56.78125 388.71875 60.398438 393.234375 60.398438 C 396.710938 60.398438 398.933594 58.035156 399.765625 55.808594 C 400.113281 55.113281 400.253906 54.140625 400.253906 53.164062 L 400.253906 32.71875 L 408.800781 32.71875 L 408.800781 56.429688 Z M 408.804688 56.429688 "/>
        <path style=" stroke:none;fill-rule:nonzero;fill:rgb(46.666667%,7.843137%,16.470588%);fill-opacity:1;" d="M 418.054688 42.800781 C 418.054688 38.90625 417.917969 35.636719 417.777344 32.71875 L 425.078125 32.71875 L 425.492188 37.722656 L 425.703125 37.722656 C 427.304688 35.082031 430.359375 31.953125 436.128906 31.953125 C 440.578125 31.953125 444.054688 34.453125 445.511719 38.210938 L 445.652344 38.210938 C 446.832031 36.332031 448.222656 34.941406 449.75 33.96875 C 451.695312 32.644531 453.851562 31.953125 456.699219 31.953125 C 462.257812 31.953125 467.960938 35.777344 467.960938 46.628906 L 467.960938 66.585938 L 459.621094 66.585938 L 459.621094 47.878906 C 459.621094 42.246094 457.675781 38.90625 453.574219 38.90625 C 450.65625 38.90625 448.5 40.996094 447.597656 43.429688 C 447.320312 44.195312 447.179688 45.304688 447.179688 46.277344 L 447.179688 66.585938 L 438.835938 66.585938 L 438.835938 46.976562 C 438.835938 42.246094 436.960938 38.90625 433 38.90625 C 429.800781 38.90625 427.644531 41.410156 426.8125 43.707031 C 426.535156 44.613281 426.394531 45.585938 426.394531 46.558594 L 426.394531 66.585938 L 418.054688 66.585938 Z M 418.054688 42.800781 "/>
        <path style=" stroke:none;fill-rule:nonzero;fill:rgb(0%,0%,0%);fill-opacity:1;" d="M 149.847656 83.859375 C 149.847656 81.882812 149.785156 80.289062 149.722656 78.820312 L 152.207031 78.820312 L 152.367188 81.464844 L 152.433594 81.464844 C 153.546875 79.582031 155.394531 78.5 157.910156 78.5 C 161.675781 78.5 164.476562 81.660156 164.476562 86.3125 C 164.476562 91.863281 161.070312 94.605469 157.4375 94.605469 C 155.394531 94.605469 153.613281 93.710938 152.6875 92.179688 L 152.625 92.179688 L 152.625 100.566406 L 149.851562 100.566406 L 149.851562 83.859375 Z M 152.621094 87.972656 C 152.621094 88.386719 152.652344 88.769531 152.75 89.121094 C 153.257812 91.066406 154.949219 92.402344 156.953125 92.402344 C 159.921875 92.402344 161.640625 89.980469 161.640625 86.4375 C 161.640625 83.378906 160.011719 80.734375 157.050781 80.734375 C 155.136719 80.734375 153.320312 82.070312 152.8125 84.175781 C 152.714844 84.527344 152.621094 84.941406 152.621094 85.292969 Z M 152.621094 87.972656 "/>
        <path style=" stroke:none;fill-rule:nonzero;fill:rgb(0%,0%,0%);fill-opacity:1;" d="M 167.992188 83.636719 C 167.992188 81.816406 167.960938 80.257812 167.863281 78.820312 L 170.316406 78.820312 L 170.445312 81.882812 L 170.539062 81.882812 C 171.242188 79.808594 172.964844 78.5 174.84375 78.5 C 175.128906 78.5 175.351562 78.535156 175.609375 78.566406 L 175.609375 81.214844 C 175.320312 81.148438 175.035156 81.148438 174.652344 81.148438 C 172.675781 81.148438 171.277344 82.617188 170.890625 84.722656 C 170.828125 85.105469 170.792969 85.582031 170.792969 86.03125 L 170.792969 94.257812 L 167.988281 94.257812 L 167.988281 83.636719 Z M 167.992188 83.636719 "/>
        <path style=" stroke:none;fill-rule:nonzero;fill:rgb(0%,0%,0%);fill-opacity:1;" d="M 181.667969 74.480469 C 181.667969 75.4375 181 76.203125 179.886719 76.203125 C 178.867188 76.203125 178.195312 75.4375 178.195312 74.480469 C 178.195312 73.523438 178.898438 72.726562 179.949219 72.726562 C 180.96875 72.730469 181.667969 73.496094 181.667969 74.480469 Z M 178.546875 94.253906 L 178.546875 78.816406 L 181.351562 78.816406 L 181.351562 94.253906 Z M 178.546875 94.253906 "/>
        <path style=" stroke:none;fill-rule:nonzero;fill:rgb(0%,0%,0%);fill-opacity:1;" d="M 187.09375 78.820312 L 190.121094 87.460938 C 190.632812 88.898438 191.046875 90.175781 191.367188 91.449219 L 191.460938 91.449219 C 191.8125 90.175781 192.257812 88.898438 192.769531 87.460938 L 195.765625 78.820312 L 198.699219 78.820312 L 192.640625 94.257812 L 189.964844 94.257812 L 184.101562 78.820312 Z M 187.09375 78.820312 "/>
        <path style=" stroke:none;fill-rule:nonzero;fill:rgb(0%,0%,0%);fill-opacity:1;" d="M 212.058594 90.554688 C 212.058594 91.894531 212.121094 93.199219 212.28125 94.253906 L 209.765625 94.253906 L 209.539062 92.308594 L 209.445312 92.308594 C 208.582031 93.523438 206.929688 94.605469 204.726562 94.605469 C 201.605469 94.605469 200.011719 92.402344 200.011719 90.171875 C 200.011719 86.441406 203.324219 84.398438 209.285156 84.429688 L 209.285156 84.113281 C 209.285156 82.867188 208.933594 80.542969 205.78125 80.574219 C 204.316406 80.574219 202.816406 80.988281 201.734375 81.722656 L 201.09375 79.839844 C 202.367188 79.042969 204.253906 78.5 206.195312 78.5 C 210.910156 78.5 212.058594 81.71875 212.058594 84.78125 Z M 209.347656 86.378906 C 206.289062 86.3125 202.816406 86.855469 202.816406 89.851562 C 202.816406 91.703125 204.027344 92.535156 205.425781 92.535156 C 207.46875 92.535156 208.773438 91.257812 209.21875 89.949219 C 209.316406 89.628906 209.347656 89.3125 209.347656 89.054688 Z M 209.347656 86.378906 "/>
        <path style=" stroke:none;fill-rule:nonzero;fill:rgb(0%,0%,0%);fill-opacity:1;" d="M 227.585938 93.710938 C 226.855469 94.0625 225.230469 94.605469 223.15625 94.605469 C 218.503906 94.605469 215.476562 91.445312 215.476562 86.730469 C 215.476562 81.976562 218.726562 78.5 223.761719 78.5 C 225.421875 78.5 226.886719 78.917969 227.652344 79.332031 L 227.011719 81.464844 C 226.34375 81.117188 225.292969 80.734375 223.761719 80.734375 C 220.222656 80.734375 218.3125 83.382812 218.3125 86.570312 C 218.3125 90.140625 220.609375 92.34375 223.667969 92.34375 C 225.261719 92.34375 226.316406 91.960938 227.109375 91.609375 Z M 227.585938 93.710938 "/>
        <path style=" stroke:none;fill-rule:nonzero;fill:rgb(0%,0%,0%);fill-opacity:1;" d="M 232.472656 78.820312 L 235.816406 87.941406 C 236.199219 88.960938 236.582031 90.171875 236.839844 91.097656 L 236.902344 91.097656 C 237.1875 90.171875 237.507812 88.992188 237.890625 87.878906 L 240.949219 78.820312 L 243.914062 78.820312 L 239.707031 89.824219 C 237.695312 95.117188 236.328125 97.796875 234.414062 99.488281 C 233.015625 100.667969 231.675781 101.148438 230.972656 101.273438 L 230.269531 98.949219 C 230.972656 98.722656 231.898438 98.277344 232.726562 97.574219 C 233.492188 96.96875 234.414062 95.886719 235.085938 94.449219 C 235.210938 94.164062 235.308594 93.941406 235.308594 93.785156 C 235.308594 93.625 235.242188 93.402344 235.085938 93.050781 L 229.410156 78.824219 L 232.472656 78.824219 Z M 232.472656 78.820312 "/>
        <path style=" stroke:none;fill-rule:nonzero;fill:rgb(0%,0%,0%);fill-opacity:1;" d="M 256.355469 74.480469 C 256.355469 75.4375 255.683594 76.203125 254.570312 76.203125 C 253.550781 76.203125 252.882812 75.4375 252.882812 74.480469 C 252.882812 73.523438 253.582031 72.726562 254.636719 72.726562 C 255.652344 72.730469 256.355469 73.496094 256.355469 74.480469 Z M 253.230469 94.253906 L 253.230469 78.816406 L 256.039062 78.816406 L 256.039062 94.253906 Z M 253.230469 94.253906 "/>
        <path style=" stroke:none;fill-rule:nonzero;fill:rgb(0%,0%,0%);fill-opacity:1;" d="M 260.3125 91.417969 C 261.171875 91.925781 262.636719 92.5 264.039062 92.5 C 266.046875 92.5 267.003906 91.511719 267.003906 90.207031 C 267.003906 88.867188 266.207031 88.164062 264.167969 87.398438 C 261.363281 86.378906 260.054688 84.878906 260.054688 83.03125 C 260.054688 80.542969 262.097656 78.5 265.378906 78.5 C 266.9375 78.5 268.3125 78.917969 269.140625 79.457031 L 268.46875 81.5 C 267.863281 81.117188 266.75 80.574219 265.316406 80.574219 C 263.65625 80.574219 262.765625 81.53125 262.765625 82.683594 C 262.765625 83.957031 263.65625 84.53125 265.667969 85.328125 C 268.3125 86.316406 269.714844 87.65625 269.714844 89.953125 C 269.714844 92.691406 267.578125 94.609375 263.976562 94.609375 C 262.285156 94.609375 260.726562 94.160156 259.640625 93.523438 Z M 260.3125 91.417969 "/>
        <path style=" stroke:none;fill-rule:nonzero;fill:rgb(0%,0%,0%);fill-opacity:1;" d="M 281.101562 78.820312 L 284.445312 87.941406 C 284.828125 88.960938 285.210938 90.171875 285.46875 91.097656 L 285.53125 91.097656 C 285.816406 90.171875 286.136719 88.992188 286.519531 87.878906 L 289.578125 78.820312 L 292.539062 78.820312 L 288.335938 89.824219 C 286.324219 95.117188 284.957031 97.796875 283.042969 99.488281 C 281.644531 100.667969 280.304688 101.148438 279.601562 101.273438 L 278.898438 98.949219 C 279.601562 98.722656 280.527344 98.277344 281.355469 97.574219 C 282.121094 96.96875 283.042969 95.886719 283.714844 94.449219 C 283.839844 94.164062 283.9375 93.941406 283.9375 93.785156 C 283.9375 93.625 283.871094 93.402344 283.714844 93.050781 L 278.039062 78.824219 L 281.101562 78.824219 Z M 281.101562 78.820312 "/>
        <path style=" stroke:none;fill-rule:nonzero;fill:rgb(0%,0%,0%);fill-opacity:1;" d="M 308.742188 86.410156 C 308.742188 92.117188 304.761719 94.605469 301.0625 94.605469 C 296.921875 94.605469 293.667969 91.542969 293.667969 86.664062 C 293.667969 81.53125 297.078125 78.5 301.316406 78.5 C 305.75 78.5 308.742188 81.722656 308.742188 86.410156 Z M 296.535156 86.570312 C 296.535156 89.949219 298.449219 92.5 301.1875 92.5 C 303.863281 92.5 305.875 89.984375 305.875 86.503906 C 305.875 83.890625 304.566406 80.605469 301.253906 80.605469 C 297.96875 80.605469 296.535156 83.664062 296.535156 86.570312 Z M 296.535156 86.570312 "/>
        <path style=" stroke:none;fill-rule:nonzero;fill:rgb(0%,0%,0%);fill-opacity:1;" d="M 325.199219 90.011719 C 325.199219 91.640625 325.230469 93.042969 325.324219 94.253906 L 322.839844 94.253906 L 322.679688 91.734375 L 322.617188 91.734375 C 321.914062 92.980469 320.257812 94.605469 317.515625 94.605469 C 315.09375 94.605469 312.191406 93.234375 312.191406 87.847656 L 312.191406 78.820312 L 315 78.820312 L 315 87.335938 C 315 90.269531 315.925781 92.277344 318.441406 92.277344 C 320.320312 92.277344 321.625 90.96875 322.136719 89.695312 C 322.296875 89.3125 322.390625 88.804688 322.390625 88.261719 L 322.390625 78.820312 L 325.199219 78.820312 Z M 325.199219 90.011719 "/>
        <path style=" stroke:none;fill-rule:nonzero;fill:rgb(0%,0%,0%);fill-opacity:1;" d="M 329.859375 83.636719 C 329.859375 81.816406 329.828125 80.257812 329.730469 78.820312 L 332.183594 78.820312 L 332.3125 81.882812 L 332.410156 81.882812 C 333.109375 79.808594 334.832031 78.5 336.710938 78.5 C 336.996094 78.5 337.222656 78.535156 337.476562 78.566406 L 337.476562 81.214844 C 337.1875 81.148438 336.902344 81.148438 336.519531 81.148438 C 334.542969 81.148438 333.140625 82.617188 332.757812 84.722656 C 332.691406 85.105469 332.660156 85.582031 332.660156 86.03125 L 332.660156 94.257812 L 329.855469 94.257812 L 329.855469 83.636719 Z M 329.859375 83.636719 "/>
        <path style=" stroke:none;fill-rule:nonzero;fill:rgb(0%,0%,0%);fill-opacity:1;" d="M 339.90625 91.417969 C 340.765625 91.925781 342.230469 92.5 343.632812 92.5 C 345.640625 92.5 346.597656 91.511719 346.597656 90.207031 C 346.597656 88.867188 345.800781 88.164062 343.761719 87.398438 C 340.957031 86.378906 339.648438 84.878906 339.648438 83.03125 C 339.648438 80.542969 341.691406 78.5 344.972656 78.5 C 346.53125 78.5 347.90625 78.917969 348.734375 79.457031 L 348.0625 81.5 C 347.457031 81.117188 346.34375 80.574219 344.910156 80.574219 C 343.25 80.574219 342.359375 81.53125 342.359375 82.683594 C 342.359375 83.957031 343.25 84.53125 345.257812 85.328125 C 347.90625 86.316406 349.308594 87.65625 349.308594 89.953125 C 349.308594 92.691406 347.171875 94.609375 343.570312 94.609375 C 341.878906 94.609375 340.320312 94.160156 339.234375 93.523438 Z M 339.90625 91.417969 "/>
        <path style=" stroke:none;fill-rule:nonzero;fill:rgb(0%,0%,0%);fill-opacity:1;" d="M 370.511719 90.554688 C 370.511719 91.894531 370.574219 93.199219 370.734375 94.253906 L 368.21875 94.253906 L 367.996094 92.308594 L 367.898438 92.308594 C 367.039062 93.523438 365.382812 94.605469 363.179688 94.605469 C 360.058594 94.605469 358.464844 92.402344 358.464844 90.171875 C 358.464844 86.441406 361.777344 84.398438 367.738281 84.429688 L 367.738281 84.113281 C 367.738281 82.867188 367.386719 80.542969 364.234375 80.574219 C 362.765625 80.574219 361.269531 80.988281 360.1875 81.722656 L 359.550781 79.839844 C 360.820312 79.042969 362.703125 78.5 364.648438 78.5 C 369.367188 78.5 370.511719 81.71875 370.511719 84.78125 Z M 367.804688 86.378906 C 364.746094 86.3125 361.269531 86.855469 361.269531 89.851562 C 361.269531 91.703125 362.484375 92.535156 363.882812 92.535156 C 365.925781 92.535156 367.230469 91.257812 367.675781 89.949219 C 367.769531 89.628906 367.804688 89.3125 367.804688 89.054688 Z M 367.804688 86.378906 "/>
        <path style=" stroke:none;fill-rule:nonzero;fill:rgb(0%,0%,0%);fill-opacity:1;" d="M 388.242188 91.992188 C 388.242188 95.5625 387.507812 97.699219 386.042969 99.074219 C 384.511719 100.445312 382.34375 100.921875 380.398438 100.921875 C 378.550781 100.921875 376.511719 100.476562 375.269531 99.648438 L 375.96875 97.480469 C 376.988281 98.148438 378.585938 98.722656 380.496094 98.722656 C 383.363281 98.722656 385.46875 97.222656 385.46875 93.300781 L 385.46875 91.609375 L 385.402344 91.609375 C 384.574219 93.046875 382.882812 94.195312 380.496094 94.195312 C 376.671875 94.195312 373.929688 90.945312 373.929688 86.667969 C 373.929688 81.4375 377.339844 78.503906 380.910156 78.503906 C 383.585938 78.503906 385.019531 79.875 385.722656 81.152344 L 385.785156 81.152344 L 385.882812 78.824219 L 388.367188 78.824219 C 388.273438 79.910156 388.242188 81.183594 388.242188 83.035156 Z M 385.4375 84.910156 C 385.4375 84.429688 385.40625 84.015625 385.277344 83.664062 C 384.769531 82.007812 383.429688 80.667969 381.355469 80.667969 C 378.679688 80.667969 376.765625 82.933594 376.765625 86.503906 C 376.765625 89.535156 378.328125 92.054688 381.324219 92.054688 C 383.078125 92.054688 384.636719 90.96875 385.210938 89.1875 C 385.371094 88.707031 385.433594 88.164062 385.433594 87.6875 L 385.433594 84.910156 Z M 385.4375 84.910156 "/>
        <path style=" stroke:none;fill-rule:nonzero;fill:rgb(0%,0%,0%);fill-opacity:1;" d="M 403.710938 90.554688 C 403.710938 91.894531 403.773438 93.199219 403.933594 94.253906 L 401.417969 94.253906 L 401.195312 92.308594 L 401.097656 92.308594 C 400.238281 93.523438 398.582031 94.605469 396.382812 94.605469 C 393.257812 94.605469 391.664062 92.402344 391.664062 90.171875 C 391.664062 86.441406 394.976562 84.398438 400.9375 84.429688 L 400.9375 84.113281 C 400.9375 82.867188 400.589844 80.542969 397.433594 80.574219 C 395.964844 80.574219 394.46875 80.988281 393.386719 81.722656 L 392.75 79.839844 C 394.019531 79.042969 395.902344 78.5 397.847656 78.5 C 402.566406 78.5 403.714844 81.71875 403.714844 84.78125 L 403.714844 90.554688 Z M 401 86.378906 C 397.941406 86.3125 394.46875 86.855469 394.46875 89.851562 C 394.46875 91.703125 395.679688 92.535156 397.082031 92.535156 C 399.121094 92.535156 400.425781 91.257812 400.871094 89.949219 C 400.96875 89.628906 401 89.3125 401 89.054688 Z M 401 86.378906 "/>
        <path style=" stroke:none;fill-rule:nonzero;fill:rgb(0%,0%,0%);fill-opacity:1;" d="M 411.367188 74.480469 C 411.367188 75.4375 410.695312 76.203125 409.582031 76.203125 C 408.5625 76.203125 407.894531 75.4375 407.894531 74.480469 C 407.894531 73.523438 408.59375 72.726562 409.648438 72.726562 C 410.667969 72.730469 411.367188 73.496094 411.367188 74.480469 Z M 408.242188 94.253906 L 408.242188 78.816406 L 411.050781 78.816406 L 411.050781 94.253906 Z M 408.242188 94.253906 "/>
        <path style=" stroke:none;fill-rule:nonzero;fill:rgb(0%,0%,0%);fill-opacity:1;" d="M 415.707031 82.996094 C 415.707031 81.371094 415.675781 80.09375 415.582031 78.816406 L 418.070312 78.816406 L 418.226562 81.367188 L 418.292969 81.367188 C 419.058594 79.933594 420.839844 78.496094 423.390625 78.496094 C 425.527344 78.496094 428.84375 79.773438 428.84375 85.066406 L 428.84375 94.25 L 426.035156 94.25 L 426.035156 85.355469 C 426.035156 82.867188 425.109375 80.796875 422.46875 80.796875 C 420.648438 80.796875 419.214844 82.105469 418.707031 83.664062 C 418.578125 84.015625 418.515625 84.496094 418.515625 84.972656 L 418.515625 94.253906 L 415.707031 94.253906 Z M 415.707031 82.996094 "/>
    </g>
</svg>
